HIERARCHY
ROOT Hips
{
	OFFSET 0.000000 0.000000 0.000000 
	CHANNELS 6 Xposition Yposition Zposition Zrotation Yrotation Xrotation
	JOINT LeftUpLeg
	{
		OFFSET 1.363060 -1.794630 0.839290 
		CHANNELS 3 Zrotation Yrotation Xrotation
		JOINT LeftLeg
		{
			OFFSET 2.448110 -6.726130 0.000000 
			CHANNELS 3 Zrotation Yrotation Xrotation
			JOINT LeftFoot
			{
				OFFSET 2.562200 -7.039590 0.000000 
				CHANNELS 3 Zrotation Yrotation Xrotation
				JOINT LeftToeBase
				{
					OFFSET 0.157640 -0.433110 2.322550 
					CHANNELS 3 Zrotation Yrotation Xrotation
					End Site
					{
						OFFSET 0.000000 0.000000 0.000000 
					}
				}
			}
		}
	}
	JOINT RightUpLeg
	{
		OFFSET -1.305520 -1.794630 0.839290 
		CHANNELS 3 Zrotation Yrotation Xrotation
		JOINT RightLeg
		{
			OFFSET -2.542530 -6.985550 0.000000 
			CHANNELS 3 Zrotation Yrotation Xrotation
			JOINT RightFoot
			{
				OFFSET -2.568260 -7.056230 0.000000 
				CHANNELS 3 Zrotation Yrotation Xrotation
				JOINT RightToeBase
				{
					OFFSET -0.164730 -0.452590 2.363150 
					CHANNELS 3 Zrotation Yrotation Xrotation
					End Site
					{
						OFFSET 0.000000 0.000000 0.000000 
					}
				}
			}
		}
	}
	JOINT Spine
	{
		OFFSET 0.028270 2.035590 -0.193380 
		CHANNELS 3 Zrotation Yrotation Xrotation
		JOINT Spine1
		{
			OFFSET 0.056720 2.048850 -0.042750 
			CHANNELS 3 Zrotation Yrotation Xrotation
			JOINT Neck1
			{
				OFFSET -0.054170 1.746240 0.172020 
				CHANNELS 3 Zrotation Yrotation Xrotation
				JOINT Head
				{
					OFFSET 0.104070 1.761360 -0.123970 
					CHANNELS 3 Zrotation Yrotation Xrotation
					End Site
					{
						OFFSET 0.000000 0.000000 0.000000 
					}
				}
			}
			JOINT LeftArm
			{
				OFFSET 3.362410 1.200890 -0.311210 
				CHANNELS 3 Zrotation Yrotation Xrotation
				JOINT LeftForeArm
				{
					OFFSET 4.983000 -0.000000 -0.000000 
					CHANNELS 3 Zrotation Yrotation Xrotation
					JOINT LeftHand
					{
						OFFSET 3.483560 -0.000000 -0.000000 
						CHANNELS 3 Zrotation Yrotation Xrotation
						JOINT LeftHandIndex1
						{
							OFFSET 0.715260 -0.000000 -0.000000 
							CHANNELS 3 Zrotation Yrotation Xrotation
							End Site
							{
								OFFSET 0.000000 0.000000 0.000000 
							}
						}
					}
				}
			}
			JOINT RightArm
			{
				OFFSET -3.136600 1.374050 -0.404650 
				CHANNELS 3 Zrotation Yrotation Xrotation
				JOINT RightForeArm
				{
					OFFSET -5.241900 -0.000000 -0.000000 
					CHANNELS 3 Zrotation Yrotation Xrotation
					JOINT RightHand
					{
						OFFSET -3.444170 -0.000000 -0.000000 
						CHANNELS 3 Zrotation Yrotation Xrotation
						JOINT RightHandIndex1
						{
							OFFSET -0.622530 -0.000000 -0.000000 
							CHANNELS 3 Zrotation Yrotation Xrotation
							End Site
							{
								OFFSET 0.000000 0.000000 0.000000 
							}
						}
					}
				}
			}
		}
	}
}
MOTION
Frames: 18
Frame Time: 0.041667
1.128933 18.077041 5.051179 -173.319088 3.355445 -169.179555 -6.056118 2.270890 -27.705616 -0.567979 8.316028 21.296861 1.522778 -2.523752 13.540589 0.741200 5.499700 15.339600 17.359895 -9.150034 -9.389720 -3.640439 -13.656231 38.099679 3.699126 -17.419194 -1.080102 -0.732900 -5.469600 15.252900 1.546191 5.221957 -1.894057 -6.032820 2.317147 -9.027499 9.518975 3.092028 15.019433 1.477400 2.277100 9.136800 -79.818435 -0.632781 60.446528 34.570650 -41.986060 -17.311602 -0.847082 -1.643816 -17.517630 -7.125000 0.000000 0.000000 84.472491 -9.899010 35.334249 -32.220694 42.314137 -11.277539 0.019987 -0.853368 -15.900868 7.125000 0.000000 0.000000 
1.165066 18.066259 5.125738 -173.268932 3.569621 -169.386211 -5.918882 2.462856 -27.751018 -0.556665 8.324596 21.316528 1.534128 -2.491067 13.760570 0.742400 5.503900 15.351600 17.353905 -9.183762 -8.328621 -3.395022 -13.352732 37.014437 3.838238 -17.996871 -0.885323 -0.766000 -5.588900 15.596300 1.574853 5.352611 -1.869662 -5.926536 2.393384 -9.091814 8.824028 3.541523 15.206080 1.285200 2.446200 9.204000 -79.568600 -0.259960 61.605772 36.470072 -43.271492 -18.876592 -0.803828 -1.595915 -17.942615 -7.125000 0.000000 0.000000 83.676078 -10.018035 37.257287 -33.749153 43.472661 -12.174136 0.046997 -0.852235 -17.478479 7.125000 0.000000 0.000000 
1.202001 18.056164 5.194676 -173.194648 3.947052 -169.529927 -5.725731 2.681098 -27.781210 -0.540205 8.325437 21.315179 1.518684 -2.327746 13.907109 0.761800 5.573900 15.553000 17.375997 -9.046188 -7.280258 -3.143009 -13.036395 35.890325 3.969423 -18.549724 -0.641124 -0.788700 -5.669300 15.827900 1.582711 5.590611 -1.823134 -5.860564 2.519880 -9.044414 8.112522 3.924019 15.469180 1.091200 2.581900 9.313600 -79.365022 0.013047 62.795187 38.404635 -44.488074 -20.498204 -0.780725 -1.566745 -18.388111 -7.125000 0.000000 0.000000 82.944497 -10.045124 38.912404 -35.321960 44.605422 -13.125197 0.066655 -0.846689 -18.899865 7.125000 0.000000 0.000000 
1.239280 18.045038 5.270152 -173.160290 4.388618 -169.657543 -5.609173 3.017990 -27.888598 -0.524647 8.326616 21.319667 1.516176 -2.232684 14.069356 0.740800 5.498400 15.335700 17.320034 -8.927852 -6.322069 -2.890023 -12.705448 34.758927 4.029968 -18.808760 -0.443916 -0.889000 -6.009900 16.813100 1.670710 5.812278 -1.792897 -5.666767 2.654351 -9.043285 7.403168 4.296785 15.649245 0.888700 2.709700 9.388400 -79.256173 0.305232 63.884902 40.447887 -45.678482 -22.245815 -0.743567 -1.528479 -18.711582 -7.125000 0.000000 0.000000 82.258576 -9.985724 40.425845 -36.910948 45.695575 -14.114232 0.084790 -0.841291 -20.038130 7.125000 0.000000 0.000000 
1.282180 18.034026 5.354920 -173.070544 4.843014 -169.857807 -5.391994 3.329813 -27.925121 -0.503177 8.323668 21.320930 1.508136 -2.094734 14.252520 0.747400 5.522200 15.404100 17.451676 -8.689862 -5.425014 -2.643180 -12.370786 33.580230 4.144754 -19.371190 0.199404 -0.833900 -5.825700 16.279500 1.663939 5.999628 -1.717794 -5.631731 2.749401 -9.070645 6.816817 4.467810 15.702089 0.677500 2.759100 9.423500 -78.986847 0.504652 64.822828 42.576716 -46.831712 -24.096609 -0.683039 -1.474700 -18.790911 -7.125000 0.000000 0.000000 81.522502 -9.754785 42.059483 -38.736954 46.880442 -15.282580 0.095660 -0.834954 -20.927890 7.125000 0.000000 0.000000 
1.321639 18.020835 5.436934 -172.994389 5.221698 -170.005957 -5.189681 3.562887 -27.993196 -0.485079 8.322567 21.319218 1.498383 -1.953152 14.432103 0.744900 5.513100 15.378100 17.526773 -8.555276 -4.541691 -2.404125 -12.029366 32.421653 4.241680 -19.828835 0.600568 -0.825800 -5.797700 16.198700 1.699600 6.173511 -1.663205 -5.558237 2.843191 -9.071140 6.257187 4.724270 15.822224 0.505400 2.844500 9.484700 -78.771106 0.708811 65.747178 44.778774 -47.933924 -26.042744 -0.638976 -1.429949 -18.869791 -7.125000 0.000000 0.000000 80.765321 -9.568448 43.570670 -40.598931 48.011785 -16.504915 0.106769 -0.826981 -21.820853 7.125000 0.000000 0.000000 
1.361212 18.006612 5.522275 -172.907757 5.583210 -170.134094 -4.964981 3.763575 -28.079246 -0.464948 8.323452 21.323229 1.486239 -1.800718 14.611724 0.739500 5.493600 15.321900 17.637004 -8.422850 -3.728481 -2.168654 -11.681112 31.256932 4.330681 -20.255873 0.975226 -0.784900 -5.655800 15.789000 1.740114 6.331043 -1.604155 -5.501849 2.926327 -9.061403 5.762601 4.935226 15.923660 0.351500 2.912400 9.541700 -78.545911 0.865804 66.604735 47.048731 -48.984729 -28.079236 -0.596082 -1.388499 -18.861138 -7.125000 0.000000 0.000000 79.991689 -9.309811 45.033370 -42.578285 49.134848 -17.836521 0.115301 -0.818612 -22.592089 7.125000 0.000000 0.000000 
1.400900 17.991241 5.611172 -172.814248 5.914295 -170.240396 -4.720841 3.921645 -28.189493 -0.442725 8.327190 21.335272 1.472116 -1.640539 14.792671 0.731200 5.463200 15.234600 17.780210 -8.303983 -3.003964 -1.940549 -11.333014 30.112825 4.407958 -20.620671 1.252130 -0.710000 -5.385100 15.010200 1.782793 6.461756 -1.542127 -5.462899 2.993729 -9.040750 5.334669 5.108282 15.997713 0.216500 2.966700 9.590900 -78.295868 0.973871 67.384727 49.379952 -49.983079 -30.199824 -0.551993 -1.349153 -18.770109 -7.125000 0.000000 0.000000 79.194828 -8.975315 46.466516 -44.682419 50.242008 -19.284211 0.121681 -0.809760 -23.265911 7.125000 0.000000 0.000000 
1.440474 17.974494 5.704313 -172.714068 6.188363 -170.315705 -4.453129 4.002530 -28.320155 -0.421180 8.330512 21.343609 1.453191 -1.456611 14.981972 0.721100 5.426200 15.128400 17.961086 -8.211151 -2.383213 -1.719899 -10.987347 28.997647 4.475189 -20.915534 1.380928 -0.598400 -4.952000 13.771700 1.824485 6.558436 -1.481857 -5.448682 3.040772 -9.009917 4.962003 5.245800 16.050127 0.097700 3.007100 9.634500 -78.009144 1.024894 68.094799 51.760745 -50.926992 -32.393799 -0.506523 -1.308858 -18.606012 -7.125000 0.000000 0.000000 78.364935 -8.564723 47.868313 -46.911476 51.320763 -20.849654 0.125856 -0.799795 -23.864994 7.125000 0.000000 0.000000 
1.479818 17.956371 5.801469 -172.616293 6.419307 -170.365629 -4.169455 4.013353 -28.467269 -0.400671 8.332403 21.344289 1.427902 -1.240608 15.176845 0.709100 5.382100 15.001500 18.166546 -8.140330 -1.866207 -1.508153 -10.649416 27.932295 4.527335 -21.098898 1.285148 -0.468600 -4.390700 12.178600 1.865045 6.623684 -1.419643 -5.447518 3.070468 -8.969057 4.630085 5.360099 16.078045 -0.008500 3.038600 9.672000 -77.669595 1.013048 68.728281 54.181259 -51.817107 -34.650977 -0.460418 -1.264140 -18.350175 -7.125000 0.000000 0.000000 77.503639 -8.068669 49.242202 -49.251545 52.354305 -22.523918 0.128256 -0.788863 -24.420205 7.125000 0.000000 0.000000 
1.519047 17.937100 5.902869 -172.541873 6.612853 -170.382765 -3.893003 3.961496 -28.638710 -0.383275 8.331533 21.331829 1.395470 -0.990681 15.376119 0.693900 5.325000 14.837800 18.372441 -8.100441 -1.467467 -1.309321 -10.325594 26.936605 4.564855 -21.172523 0.968537 -0.330900 -3.697300 10.226500 1.893825 6.662995 -1.361774 -5.456687 3.086545 -8.919575 4.322052 5.451549 16.073026 -0.108800 3.059600 9.698500 -77.260635 0.937139 69.299794 56.639735 -52.657498 -36.968035 -0.421428 -1.214515 -17.979630 -7.125000 0.000000 0.000000 76.603992 -7.491157 50.587195 -51.692798 53.329417 -24.301105 0.128908 -0.776917 -24.961750 7.125000 0.000000 0.000000 
1.558047 17.916912 6.008169 -172.492084 6.779109 -170.369675 -3.622806 3.845733 -28.825913 -0.369614 8.325648 21.298857 1.352407 -0.689827 15.574328 0.674900 5.253100 14.631900 18.575223 -8.091706 -1.189709 -1.126731 -10.023982 26.031742 4.589530 -21.149232 0.427600 -0.206200 -2.924000 8.067200 1.913649 6.680707 -1.307465 -5.468390 3.092260 -8.861009 4.022155 5.529370 16.039294 -0.207100 3.073200 9.715500 -76.766887 0.792367 69.800057 59.133779 -53.452490 -39.340998 -0.394090 -1.156935 -17.444378 -7.125000 0.000000 0.000000 75.644353 -6.833303 51.920642 -54.239855 54.240675 -26.186534 0.129213 -0.765233 -25.535444 7.125000 0.000000 0.000000 
1.597965 17.895921 6.117483 -172.474448 6.950522 -170.349735 -3.365287 3.694719 -29.007221 -0.359660 8.312811 21.239851 1.296742 -0.329043 15.768101 0.657900 5.187900 14.445100 18.761973 -8.107942 -1.005585 -0.963680 -9.751809 25.235024 4.604805 -21.058299 -0.311055 -0.105800 -2.097700 5.775700 1.920001 6.685993 -1.248642 -5.474128 3.092983 -8.805835 3.724052 5.602012 15.974708 -0.305600 3.083200 9.721800 -76.161615 0.577939 70.224023 61.677382 -54.211252 -41.778467 -0.387010 -1.094555 -16.743336 -7.125000 0.000000 0.000000 74.631844 -6.089579 53.252134 -56.878757 55.076716 -28.170440 0.129563 -0.754530 -26.167921 7.125000 0.000000 0.000000 
1.638800 17.874012 6.230698 -172.493646 7.128794 -170.327983 -3.131550 3.532480 -29.186648 -0.354782 8.290100 21.149064 1.232164 0.072791 15.957829 0.632800 5.089900 14.165000 18.927753 -8.164580 -0.913728 -0.821756 -9.512948 24.552913 4.609629 -20.917201 -1.193725 -0.038100 -1.259400 3.462800 1.918611 6.684124 -1.186464 -5.467384 3.092109 -8.758238 3.429066 5.670736 15.881295 -0.401900 3.089400 9.716000 -75.444160 0.291427 70.566964 64.281094 -54.940704 -44.284336 -0.405460 -1.032811 -15.893917 -7.125000 0.000000 0.000000 73.552801 -5.267524 54.581554 -59.620590 55.834961 -30.263497 0.131418 -0.745510 -26.894356 7.125000 0.000000 0.000000 
1.680782 17.851644 6.347468 -172.543807 7.319976 -170.295304 -2.910365 3.347030 -29.357547 -0.354415 8.256480 21.021235 1.152355 0.540695 16.126603 0.604900 4.978300 13.846500 19.074414 -8.255632 -0.915008 -0.700037 -9.307836 23.979454 4.609896 -20.765270 -2.174541 -0.004800 -0.445300 1.223600 1.913127 6.679044 -1.124642 -5.442875 3.092108 -8.715099 3.140621 5.736387 15.772067 -0.493900 3.092800 9.702300 -74.606400 -0.069613 70.814841 66.967799 -55.649167 -46.872445 -0.446553 -0.972054 -14.970459 -7.125000 0.000000 0.000000 72.399752 -4.371069 55.909204 -62.485775 56.512530 -32.484106 0.136025 -0.738355 -27.742151 7.125000 0.000000 0.000000 
1.724256 17.829047 6.467221 -172.625293 7.531978 -170.264002 -2.699961 3.151192 -29.506464 -0.358484 8.210670 20.853495 1.056337 1.070334 16.257002 0.570500 4.837300 13.445100 19.199276 -8.371116 -0.983938 -0.595054 -9.132648 23.501818 4.600847 -20.594024 -3.239952 -0.001700 0.267700 -0.735500 1.900481 6.676964 -1.058842 -5.405119 3.095368 -8.678004 2.870480 5.794851 15.648308 -0.578200 3.092700 9.680200 -73.631269 -0.503746 70.957314 69.788148 -56.349560 -49.576250 -0.504833 -0.919042 -14.087122 -7.125000 0.000000 0.000000 71.176794 -3.406274 57.212865 -65.485141 57.101897 -34.844389 0.143460 -0.732076 -28.709338 7.125000 0.000000 0.000000 
1.769335 17.805877 6.589612 -172.724921 7.758729 -170.244275 -2.494533 2.961830 -29.631063 -0.367011 8.150473 20.642719 0.947890 1.641205 16.349198 0.524000 4.639000 12.881700 19.316801 -8.511480 -1.103231 -0.503760 -8.982076 23.097787 4.585131 -20.427553 -4.324219 -0.020000 0.913900 -2.511900 1.888493 6.678068 -0.988270 -5.354039 3.101454 -8.652198 2.623203 5.842472 15.523230 -0.653300 3.088300 9.653900 -72.531134 -1.017014 70.971362 72.746390 -57.039315 -52.382141 -0.571193 -0.876550 -13.364465 -7.125000 0.000000 0.000000 69.893901 -2.378527 58.463626 -68.616891 57.592103 -37.347422 0.153435 -0.724766 -29.774606 7.125000 0.000000 0.000000 
1.816135 17.782706 6.714067 -172.840273 8.005622 -170.236052 -2.290302 2.782072 -29.723286 -0.379399 8.075762 20.389008 0.824270 2.254346 16.380759 0.464200 4.370300 12.120900 19.425686 -8.666827 -1.254761 -0.422189 -8.848098 22.743256 4.557423 -20.249122 -5.391117 -0.050500 1.450000 -3.988000 1.872520 6.685567 -0.911833 -5.292479 3.111426 -8.637200 2.422221 5.876961 15.415980 -0.710700 3.080900 9.630200 -71.298772 -1.605910 70.829844 75.861910 -57.715529 -55.286706 -0.632479 -0.841090 -12.884633 -7.125000 0.000000 0.000000 68.567393 -1.292260 59.624447 -71.860682 57.970990 -39.983315 0.164642 -0.713914 -30.893678 7.125000 0.000000 0.000000 
